<svg xmlns="http://www.w3.org/2000/svg" viewBox="0 0 12 12">
  <g clip-path="url(#clip0_315_5945)">
    <path
      d="M0.929688 6.51109H9.30997L5.64997 9.97938C5.50937 10.1125 5.43034 10.2931 5.43026 10.4815C5.43018 10.6698 5.50906 10.8505 5.64954 10.9837C5.79003 11.117 5.98062 11.1918 6.17938 11.1919C6.37815 11.192 6.5688 11.1173 6.7094 10.9841L11.5737 6.37463C11.7344 6.22231 11.8246 6.01575 11.8246 5.80038C11.8246 5.585 11.7344 5.37844 11.5737 5.22612L6.7094 0.616628C6.56851 0.484924 6.37835 0.4114 6.18044 0.412115C5.98254 0.412829 5.79297 0.487723 5.65314 0.620441C5.51332 0.753159 5.43459 0.932917 5.43416 1.12046C5.43372 1.308 5.51162 1.48808 5.65083 1.62138L9.31083 5.08966H0.929688C0.730775 5.08966 0.54001 5.16454 0.399357 5.29782C0.258705 5.43111 0.179688 5.61188 0.179688 5.80038C0.179688 5.98887 0.258705 6.16964 0.399357 6.30293C0.54001 6.43621 0.730775 6.51109 0.929688 6.51109Z" />
    <path
      d="M0.929688 6.51109H9.30997L5.64997 9.97938C5.50937 10.1125 5.43034 10.2931 5.43026 10.4815C5.43018 10.6698 5.50906 10.8505 5.64954 10.9837C5.79003 11.117 5.98062 11.1918 6.17938 11.1919C6.37815 11.192 6.5688 11.1173 6.7094 10.9841L11.5737 6.37463C11.7344 6.22231 11.8246 6.01575 11.8246 5.80038C11.8246 5.585 11.7344 5.37844 11.5737 5.22612L6.7094 0.616628C6.56851 0.484924 6.37835 0.4114 6.18044 0.412115C5.98254 0.412829 5.79297 0.487723 5.65314 0.620441C5.51332 0.753159 5.43459 0.932917 5.43416 1.12046C5.43372 1.308 5.51162 1.48808 5.65083 1.62138L9.31083 5.08966H0.929688C0.730775 5.08966 0.54001 5.16454 0.399357 5.29782C0.258705 5.43111 0.179688 5.61188 0.179688 5.80038C0.179688 5.98887 0.258705 6.16964 0.399357 6.30293C0.54001 6.43621 0.730775 6.51109 0.929688 6.51109Z" />
  </g>
  <defs>
    <clipPath id="clip0_315_5945">
      <rect width="12" height="11.3714" transform="translate(0 0.114258)" />
    </clipPath>
  </defs>
</svg>
