<svg width="25" height="24" viewBox="0 0 25 24" fill="none" xmlns="http://www.w3.org/2000/svg">
<g id="Arrow">
<path id="Vector" d="M11.316 4.1593L11.316 17.113L5.5247 11.4556C5.3024 11.2383 5.00083 11.1161 4.68632 11.116C4.37182 11.1159 4.07014 11.2378 3.84766 11.4549C3.62518 11.6721 3.50013 11.9667 3.5 12.2739C3.49987 12.5812 3.62469 12.8759 3.84699 13.0932L11.5439 20.6121C11.7982 20.8605 12.1431 21 12.5027 21C12.8624 21 13.2073 20.8605 13.4616 20.6121L21.1585 13.0932C21.3784 12.8754 21.5012 12.5815 21.5 12.2756C21.4988 11.9697 21.3737 11.6766 21.1521 11.4605C20.9305 11.2444 20.6304 11.1227 20.3172 11.122C20.0041 11.1213 19.7034 11.2417 19.4808 11.4569L13.6895 17.1143L13.6895 4.1593C13.6895 3.85183 13.5645 3.55696 13.3419 3.33955C13.1193 3.12214 12.8175 3 12.5027 3C12.188 3 11.8861 3.12214 11.6636 3.33955C11.441 3.55696 11.316 3.85183 11.316 4.1593Z" fill="current"/>
</g>
</svg>
