<svg  viewBox="0 0 20 21" fill="none" xmlns="http://www.w3.org/2000/svg">
<path fill-rule="evenodd" clip-rule="evenodd" d="M5.96638 9.07895C6.72124 9.07895 7.4337 8.78351 7.97087 8.24775C9.07348 7.14231 9.07348 5.3435 7.97087 4.23665C6.90501 3.17079 5.03057 3.17079 3.96189 4.23665C3.42472 4.77382 3.12927 5.48628 3.12927 6.24326C3.12927 7.00025 3.42472 7.7127 3.9633 8.24987C4.49905 8.78421 5.21151 9.07895 5.96638 9.07895Z"/>
<path fill-rule="evenodd" clip-rule="evenodd" d="M14.2234 6.24683C14.9274 6.24683 15.5889 5.97259 16.0865 5.475C17.1128 4.44802 17.1128 2.77643 16.0865 1.74804C15.0772 0.737308 13.3696 0.737308 12.3603 1.74804C11.8613 2.24633 11.5884 2.90861 11.5898 3.61187C11.5898 4.31797 11.8627 4.98024 12.3617 5.47712C12.8593 5.9733 13.5208 6.24683 14.2234 6.24683Z"/>
<path fill-rule="evenodd" clip-rule="evenodd" d="M6.01488 10.2566H5.91311C2.65192 10.2566 0 12.9099 0 16.1697V20.1023C0 20.5929 0.397223 20.9901 0.887744 20.9901C1.37826 20.9901 10.5526 20.9901 11.0431 20.9901C11.5336 20.9901 11.9308 20.5929 11.9308 20.1023V16.1697C11.9308 12.9099 9.27748 10.2566 6.01488 10.2566Z"/>
<path fill-rule="evenodd" clip-rule="evenodd" d="M14.2012 7.38965H14.2011C12.7508 7.38965 11.3881 7.95368 10.3646 8.97854C10.1992 9.14393 10.1088 9.36304 10.1088 9.59699C10.1102 9.82882 10.2006 10.0458 10.3632 10.2084C10.5272 10.3731 12.1873 12.026 12.6409 12.9006C13.3817 14.3293 13.322 16.198 13.2985 17.0222C13.2927 17.2252 13.449 17.3817 13.6519 17.3763C14.8063 17.3451 18.4848 17.2524 18.8519 17.2524C19.3311 17.2524 19.7199 16.8636 19.7199 16.3844V12.9084C19.7199 9.86046 17.2491 7.38965 14.2012 7.38965Z"/>
</svg>
