<svg width="17" height="16" viewBox="0 0 17 16" fill="none" xmlns="http://www.w3.org/2000/svg">
<g clip-path="url(#clip0_315_5889)">
<path d="M8.38729 0C3.91225 0 0.273438 3.588 0.273438 8C0.273438 12.412 3.91225 16 8.38729 16C12.8623 16 16.5003 12.412 16.5003 8C16.5003 3.588 12.8623 0 8.38729 0ZM8.38729 1C8.62206 1 8.87868 1.1168 9.17172 1.4296C9.46396 1.7424 9.76268 2.2408 10.0152 2.8792C10.2516 3.476 10.4443 4.1992 10.5876 5H6.1862C6.32948 4.2 6.52215 3.476 6.75853 2.8792C7.01191 2.2408 7.30901 1.7432 7.60287 1.4296C7.8951 1.1176 8.15253 1 8.38729 1ZM6.45982 1.2656C6.21696 1.6256 6.00163 2.0416 5.81382 2.516C5.52887 3.2344 5.30301 4.0744 5.14839 5H1.97587C2.41048 4.09734 3.03556 3.29707 3.80911 2.65295C4.58265 2.00883 5.48674 1.53578 6.46063 1.2656H6.45982ZM10.3148 1.2656C11.2882 1.53609 12.1918 2.00927 12.9649 2.65337C13.738 3.29748 14.3627 4.0976 14.7971 5H11.6254C11.4716 4.0744 11.2449 3.2344 10.96 2.516C10.7907 2.07764 10.5744 1.65845 10.3148 1.2656ZM1.58487 6H5.02777C4.95896 6.6424 4.91039 7.304 4.91039 8C4.91039 8.696 4.95896 9.3576 5.02777 10H1.58487C1.38828 9.35108 1.2882 8.67737 1.28777 8C1.28777 7.304 1.39382 6.6336 1.58487 6ZM6.04939 6H10.7244C10.7972 6.6384 10.8491 7.3008 10.8491 8C10.8491 8.7 10.7972 9.3608 10.7244 10H6.04939C5.96977 9.33618 5.92814 8.66845 5.92472 8C5.92472 7.3008 5.97734 6.6384 6.04939 6ZM11.7468 6H15.1889C15.38 6.6336 15.4868 7.304 15.4868 8C15.4868 8.696 15.3808 9.3656 15.1889 10H11.7468C11.8148 9.3576 11.8634 8.696 11.8634 8C11.8634 7.304 11.8148 6.6424 11.7468 6ZM1.9791 11H5.14839C5.3022 11.9264 5.52887 12.768 5.81382 13.4864C6.00082 13.9584 6.21534 14.3728 6.45739 14.7328C5.48481 14.462 4.58207 13.9889 3.80969 13.3451C3.03732 12.7013 2.41317 11.9017 1.9791 11ZM6.18863 11H10.586C10.4427 11.8 10.2516 12.5264 10.0152 13.1232C9.76268 13.7616 9.46477 14.2592 9.17172 14.572C8.87868 14.8848 8.62125 15 8.38649 15C8.15172 15 7.8951 14.8848 7.60287 14.572C7.30982 14.26 7.01191 13.7616 6.75853 13.1232C6.52296 12.5264 6.33191 11.8 6.18863 11ZM11.6254 11H14.7955C14.3613 11.9018 13.7371 12.7014 12.9645 13.3452C12.192 13.989 11.2891 14.4621 10.3164 14.7328C10.5584 14.3728 10.773 13.9592 10.96 13.4864C11.2449 12.7672 11.4708 11.9264 11.6254 11Z" fill="black"/>
</g>
<defs>
<clipPath id="clip0_315_5889">
<rect width="17" height="16" fill="white"/>
</clipPath>
</defs>
</svg>
