<svg  viewBox="0 0 21 21" fill="none" xmlns="http://www.w3.org/2000/svg">
<path d="M0 20.4321H20.3863V19.1446H19.0987V8.26475L11.9742 6.31196V19.1231H11.0086V0.432129L1.28755 2.36346V19.1446H0V20.4321ZM16.1803 9.93857H17.4678V11.6124H16.1803V9.93857ZM16.1803 12.9214H17.4678V14.5952H16.1803V12.9214ZM16.1803 15.9042H17.4678V17.5781H16.1803V15.9042ZM13.5837 9.93857H14.8712V11.6124H13.5837V9.93857ZM13.5837 12.9214H14.8712V14.5952H13.5837V12.9214ZM13.5837 15.9042H14.8712V17.5781H13.5837V15.9042ZM8.09013 3.99436H9.37768V5.66818H8.09013V3.99436ZM8.09013 6.97719H9.37768V8.65101H8.09013V6.97719ZM8.09013 9.93857H9.37768V11.6124H8.09013V9.93857ZM8.09013 12.9214H9.37768V14.5952H8.09013V12.9214ZM5.49356 3.99436H6.78112V5.66818H5.49356V3.99436ZM5.49356 6.97719H6.78112V8.65101H5.49356V6.97719ZM5.49356 9.93857H6.78112V11.6124H5.49356V9.93857ZM5.49356 12.9214H6.78112V14.5952H5.49356V12.9214ZM2.897 3.99436H4.18455V5.66818H2.897V3.99436ZM2.897 6.97719H4.18455V8.65101H2.897V6.97719ZM2.897 9.93857H4.18455V11.6124H2.897V9.93857ZM2.897 12.9214H4.18455V14.5952H2.897V12.9214ZM4.91416 15.9042H7.38197V19.1446H4.91416V15.9042Z"/>
</svg>
