<svg viewBox="0 0 53 40" xmlns="http://www.w3.org/2000/svg">
<path d="M36.9738 25.5088L50.5865 33.8054C52.0006 34.6688 52.4342 36.5271 51.5669 37.9349L51.171 38.5731C50.3037 39.9809 48.4371 40.4126 47.0231 39.5491L33.5234 31.3089"/>
<path d="M19.7404 0C8.84264 0 0 8.80338 0 19.6527C0 30.5021 8.84264 39.3055 19.7404 39.3055C30.6381 39.3055 39.4808 30.5021 39.4808 19.6527C39.4808 8.80338 30.6381 0 19.7404 0ZM19.7404 7.56452C22.4743 7.56452 24.6802 9.77945 24.6802 12.4824C24.6802 15.1854 22.4554 17.4003 19.7404 17.4003C17.0254 17.4003 14.8006 15.1854 14.8006 12.4824C14.8006 9.77945 17.0254 7.56452 19.7404 7.56452ZM19.7404 31.7597C16.0261 31.7597 12.6512 30.2581 10.219 27.8179L11.8028 24.1577C13.2168 21.2107 16.2335 19.1647 19.7215 19.1647C23.2096 19.1647 26.2451 21.2107 27.6403 24.1577L29.2241 27.8179C26.7919 30.2393 23.4358 31.7597 19.7215 31.7597H19.7404Z"/>
</svg>
