<svg xmlns="http://www.w3.org/2000/svg" viewBox="0 0 21 20">
  <path
    d="M10.1403 2.45491C12.7728 2.45491 13.0818 2.46632 14.1222 2.51196C15.0845 2.55381 15.6047 2.70976 15.9528 2.84289C16.4144 3.01786 16.743 3.22326 17.0872 3.55798C17.4314 3.89271 17.6465 4.21222 17.8226 4.66106C17.9555 4.99959 18.1198 5.50548 18.1629 6.44119C18.2098 7.45298 18.2215 7.75347 18.2215 10.3134C18.2215 12.8733 18.2098 13.1737 18.1629 14.1855C18.1198 15.1212 17.9595 15.6271 17.8226 15.9657C17.6426 16.4145 17.4314 16.734 17.0872 17.0687C16.743 17.4035 16.4144 17.6127 15.9528 17.7838C15.6047 17.9132 15.0845 18.0729 14.1222 18.1148C13.0818 18.1604 12.7728 18.1718 10.1403 18.1718C7.50782 18.1718 7.19881 18.1604 6.15834 18.1148C5.1961 18.0729 4.67586 17.917 4.32773 17.7838C3.86617 17.6089 3.5376 17.4035 3.19339 17.0687C2.84917 16.734 2.63404 16.4145 2.45802 15.9657C2.32502 15.6271 2.16074 15.1212 2.11771 14.1855C2.07077 13.1737 2.05904 12.8733 2.05904 10.3134C2.05904 7.75347 2.07077 7.45298 2.11771 6.44119C2.16074 5.50548 2.32111 4.99959 2.45802 4.66106C2.63795 4.21222 2.84917 3.89271 3.19339 3.55798C3.5376 3.22326 3.86617 3.01405 4.32773 2.84289C4.67586 2.71356 5.1961 2.55381 6.15834 2.51196C7.19881 2.46252 7.51173 2.45491 10.1403 2.45491ZM10.1403 0.728027C7.46479 0.728027 7.1284 0.739438 6.07619 0.785083C5.0279 0.830727 4.31209 0.994287 3.68624 1.23012C3.03692 1.47355 2.48931 1.80448 1.94169 2.33699C1.39408 2.86951 1.05768 3.40583 0.803433 4.03345C0.560917 4.64204 0.392721 5.33812 0.345783 6.36131C0.298844 7.38071 0.287109 7.70782 0.287109 10.3096C0.287109 12.9113 0.298844 13.2384 0.345783 14.2616C0.392721 15.281 0.560917 15.9771 0.803433 16.5895C1.05377 17.2209 1.39408 17.7534 1.94169 18.2859C2.48931 18.8184 3.04084 19.1456 3.68624 19.3928C4.31209 19.6286 5.0279 19.7922 6.0801 19.8378C7.13231 19.8835 7.46479 19.8949 10.1442 19.8949C12.8236 19.8949 13.1561 19.8835 14.2083 19.8378C15.2566 19.7922 15.9724 19.6286 16.6022 19.3928C17.2515 19.1494 17.7991 18.8184 18.3467 18.2859C18.8943 17.7534 19.2307 17.2171 19.485 16.5895C19.7275 15.9809 19.8957 15.2848 19.9426 14.2616C19.9896 13.2384 20.0013 12.9151 20.0013 10.3096C20.0013 7.70402 19.9896 7.38071 19.9426 6.35751C19.8957 5.33812 19.7275 4.64204 19.485 4.02964C19.2346 3.39823 18.8943 2.86571 18.3467 2.33319C17.7991 1.80067 17.2476 1.47355 16.6022 1.22631C15.9763 0.990483 15.2605 0.826924 14.2083 0.781279C13.1522 0.739438 12.8158 0.728027 10.1403 0.728027Z" />
  <path
    d="M10.1397 5.3916C7.34682 5.3916 5.07812 7.59395 5.07812 10.3136C5.07812 13.0332 7.34291 15.2356 10.1397 15.2356C12.9364 15.2356 15.2012 13.0332 15.2012 10.3136C15.2012 7.59395 12.9364 5.3916 10.1397 5.3916ZM10.1397 13.5049C8.3247 13.5049 6.85396 12.0747 6.85396 10.3098C6.85396 8.54487 8.3247 7.11468 10.1397 7.11468C11.9546 7.11468 13.4254 8.54487 13.4254 10.3098C13.4254 12.0747 11.9546 13.5049 10.1397 13.5049Z" />
  <path
    d="M15.402 6.34187C16.0544 6.34187 16.5833 5.82757 16.5833 5.19315C16.5833 4.55873 16.0544 4.04443 15.402 4.04443C14.7496 4.04443 14.2207 4.55873 14.2207 5.19315C14.2207 5.82757 14.7496 6.34187 15.402 6.34187Z" />
</svg>
