<svg xmlns="http://www.w3.org/2000/svg" viewBox="0 0 33 32" fill="none">
  <path
    d="M16.5 0C7.66337 0 0.5 7.16339 0.5 16C0.5 24.8366 7.66337 32 16.5 32C25.3366 32 32.5 24.8366 32.5 16C32.4999 7.16339 25.3364 0 16.5 0ZM12.2311 23.7353H8.71819V12.3859H12.2311V23.7353ZM10.4579 10.8996C9.31063 10.8996 8.38055 9.96193 8.38055 8.80545C8.38055 7.64883 9.31076 6.71123 10.4579 6.71123C11.6051 6.71123 12.5352 7.64883 12.5352 8.80545C12.5352 9.962 11.6052 10.8996 10.4579 10.8996ZM25.3959 23.7353H21.9V17.7778C21.9 16.1438 21.2794 15.2317 19.9873 15.2317C18.5812 15.2317 17.8466 16.1817 17.8466 17.7778V23.7353H14.4773V12.3859H17.8466V13.9145C17.8466 13.9145 18.8601 12.0397 21.2666 12.0397C23.6732 12.0397 25.396 13.5091 25.396 16.549L25.3959 23.7353Z"
    fill="#118ACB" />
</svg>
