<svg xmlns="http://www.w3.org/2000/svg" viewBox="0 0 21 20">
  <path
    d="M5.08115 19.9258H0.988206V7.10843H5.08115V19.9258ZM3.03248 5.36002C1.72368 5.36002 0.662109 4.30584 0.662109 3.0331C0.662109 2.42176 0.911844 1.83545 1.35637 1.40317C1.8009 0.970882 2.40382 0.728027 3.03248 0.728027C3.66114 0.728027 4.26405 0.970882 4.70858 1.40317C5.15311 1.83545 5.40284 2.42176 5.40284 3.0331C5.40284 4.30584 4.34083 5.36002 3.03248 5.36002ZM20.3997 19.9258H16.3156V13.6864C16.3156 12.1994 16.2848 10.2924 14.1876 10.2924C12.0596 10.2924 11.7335 11.908 11.7335 13.5793V19.9258H7.64497V7.10843H11.5705V8.85684H11.6278C12.1742 7.84979 13.509 6.78703 15.5004 6.78703C19.6427 6.78703 20.4041 9.43964 20.4041 12.885V19.9258H20.3997Z" />
</svg>
