<svg  viewBox="0 0 18 21" xmlns="http://www.w3.org/2000/svg">
<path fill-rule="evenodd" clip-rule="evenodd" d="M12.2865 14.5996C12.034 14.9975 11.7597 15.4119 11.4619 15.8425C13.966 16.2094 15.2482 16.9956 15.2482 17.3862C15.2482 17.9067 12.9768 19.1273 8.57162 19.1273C4.16606 19.1273 1.89436 17.9067 1.89436 17.3862C1.89436 16.9952 3.17615 16.2094 5.68065 15.8425C5.38315 15.4119 5.10815 14.9975 4.85636 14.5996C2.38457 15.0568 0.497925 15.9952 0.497925 17.3866C0.497925 19.4277 4.55956 20.4953 8.57162 20.4953C12.5833 20.4953 16.645 19.4273 16.645 17.3866C16.645 15.9952 14.7583 15.0568 12.2865 14.5996" fill="black"/>
<path fill-rule="evenodd" clip-rule="evenodd" d="M9.82521 16.5889C9.53266 16.9807 9.06696 17.2114 8.57202 17.2114C8.07707 17.2114 7.61138 16.9807 7.31738 16.5889C5.44407 14.0847 2.13196 9.30232 2.13196 6.80376C2.13196 3.31951 5.01435 0.495361 8.57154 0.495361C12.1278 0.495361 15.0111 3.31951 15.0111 6.80376C15.0111 9.30279 11.698 14.0847 9.82521 16.5889ZM8.57154 4.05574C7.09197 4.05574 5.89297 5.2303 5.89297 6.67926C5.89297 8.12868 7.09197 9.30326 8.57154 9.30279C10.0506 9.30279 11.2496 8.12821 11.2496 6.67926C11.2496 5.2303 10.0506 4.05574 8.57154 4.05574Z" fill="black"/>
</svg>
