<svg viewBox="0 0 42 43"  xmlns="http://www.w3.org/2000/svg">
<path d="M20.5144 0H4.97525C2.23205 0 0 2.22209 0 4.95306V38.7254C0 40.5574 1.02231 42.1349 2.50467 43L4.48114 38.4371C5.94645 35.3669 9.09858 33.2296 12.7448 33.2296C16.3911 33.2296 19.5432 35.3669 21.0085 38.4371L22.985 43C24.4673 42.1519 25.4897 40.5574 25.4897 38.7254V4.95306C25.4897 2.22209 23.2576 0 20.5144 0ZM12.7448 31.3976C9.89939 31.3976 7.58215 29.0907 7.58215 26.258C7.58215 23.4252 9.89939 21.1183 12.7448 21.1183C15.5903 21.1183 17.9075 23.4252 17.9075 26.258C17.9075 29.0907 15.5903 31.3976 12.7448 31.3976Z"/>
<path d="M31.3518 12.7393H30.8236C29.5533 12.7393 28.5234 13.7645 28.5234 15.0292V27.2592C28.5234 28.5239 29.5533 29.5491 30.8236 29.5491H31.3518C32.6222 29.5491 33.652 28.5239 33.652 27.2592V15.0292C33.652 13.7645 32.6222 12.7393 31.3518 12.7393Z"/>
<path d="M39.6995 6.37793H39.1713C37.9009 6.37793 36.8711 7.40317 36.8711 8.66787V33.6197C36.8711 34.8844 37.9009 35.9097 39.1713 35.9097H39.6995C40.9699 35.9097 41.9997 34.8844 41.9997 33.6197V8.66787C41.9997 7.40317 40.9699 6.37793 39.6995 6.37793Z"/>
</svg>
