<svg viewBox="0 0 99 80" fill="none" xmlns="http://www.w3.org/2000/svg">
<path id="&#226;&#128;&#156;" d="M27.9 0.850098L42.3 12.2501C32.7 17.9501 22.5 30.2501 20.7 40.4501C21.3 40.1501 23.7 39.8501 25.8 39.8501C35.7 39.8501 43.5 47.6501 43.5 58.7501C43.5 69.8501 34.5 79.1501 23.1 79.1501C10.8 79.1501 4.85612e-07 69.2501 3.62079e-07 51.8501C2.15118e-07 31.1501 11.4 12.5501 27.9 0.850098ZM83.4 0.850098L97.8 12.2501C88.2 17.9501 78 30.2501 76.2 40.4501C76.8 40.1501 79.2 39.8501 81.3 39.8501C91.2 39.8501 99 47.6501 99 58.7501C99 69.8501 90 79.1501 78.6 79.1501C66.3 79.1501 55.5 69.2501 55.5 51.8501C55.5 31.1501 66.9 12.5501 83.4 0.850098Z" fill="url(#paint0_linear_3621_14642)"/>
<defs>
<linearGradient id="paint0_linear_3621_14642" x1="-181.5" y1="146.812" x2="27.7496" y2="-118.356" gradientUnits="userSpaceOnUse">
<stop stop-color="#FCB549"/>
<stop offset="0.427083" stop-color="#8ECD7B"/>
<stop offset="1" stop-color="#34C8ED"/>
</linearGradient>
</defs>
</svg>
