<svg viewBox="0 0 201 170" fill="none" xmlns="http://www.w3.org/2000/svg"><path d="m80.58 133.713 66.467 30.523c4.628 2.126 10.109.104 12.239-4.513l39.431-85.465c2.131-4.618.105-10.085-4.524-12.21l-66.468-30.524c-4.628-2.126-10.109-.104-12.239 4.513l-39.43 85.465c-2.132 4.618-.105 10.086 4.523 12.211Z" fill="#fff"/><path d="M150.9 166.164c-1.051 0-2.09-.16-3.093-.477a1.082 1.082 0 0 1-.707-1.359c.181-.57.791-.886 1.362-.706a8.152 8.152 0 0 0 4.617.079 1.084 1.084 0 1 1 .58 2.087c-.9.249-1.827.374-2.759.374v.002Zm-7.618-2.575c-.151 0-.306-.032-.453-.099l-4.823-2.215a1.08 1.08 0 0 1-.532-1.436 1.086 1.086 0 0 1 1.439-.531l4.823 2.216c.545.25.783.892.532 1.436a1.088 1.088 0 0 1-.987.631l.001-.002Zm14.529-.526a1.082 1.082 0 0 1-.812-1.801 8.174 8.174 0 0 0 1.302-1.993l1.086-2.354a1.085 1.085 0 0 1 1.971.905l-1.086 2.354a10.36 10.36 0 0 1-1.648 2.524 1.082 1.082 0 0 1-.813.365Zm-24.175-3.905c-.152 0-.307-.032-.454-.099l-4.823-2.215a1.081 1.081 0 0 1-.532-1.436 1.086 1.086 0 0 1 1.44-.53l4.822 2.215c.545.25.783.893.532 1.436a1.088 1.088 0 0 1-.987.631l.002-.002Zm-9.647-4.429c-.152 0-.306-.033-.454-.099l-4.823-2.215a1.081 1.081 0 0 1-.531-1.436 1.086 1.086 0 0 1 1.439-.531l4.823 2.216c.544.25.782.892.531 1.435a1.085 1.085 0 0 1-.987.631l.002-.001Zm38.604-1.091a1.081 1.081 0 0 1-.986-1.535l2.221-4.811a1.085 1.085 0 0 1 1.971.905l-2.221 4.812a1.087 1.087 0 0 1-.987.631l.002-.002Zm-48.251-3.338c-.152 0-.306-.033-.454-.099l-4.822-2.216a1.08 1.08 0 0 1-.532-1.436 1.085 1.085 0 0 1 1.439-.53l4.823 2.215a1.082 1.082 0 0 1-.455 2.067l.001-.001Zm-9.647-4.43c-.151 0-.306-.032-.453-.099l-4.823-2.215a1.081 1.081 0 0 1-.532-1.436 1.087 1.087 0 0 1 1.44-.531l4.822 2.216c.545.25.783.893.532 1.436a1.088 1.088 0 0 1-.987.631l.001-.002Zm62.338-1.854a1.08 1.08 0 0 1-.986-1.535l2.221-4.812a1.085 1.085 0 0 1 1.971.906l-2.221 4.811a1.088 1.088 0 0 1-.987.631l.002-.001Zm-71.984-2.575a1.11 1.11 0 0 1-.454-.099l-4.823-2.215a1.081 1.081 0 0 1-.532-1.436 1.085 1.085 0 0 1 1.44-.531l4.822 2.215c.545.251.783.893.532 1.436a1.085 1.085 0 0 1-.987.631l.002-.001Zm-9.647-4.429c-.152 0-.306-.033-.454-.099l-4.822-2.216a1.076 1.076 0 0 1-.553-1.447c.25-.543.9-.778 1.444-.528l.016.007 4.823 2.216c.544.25.782.892.531 1.436a1.087 1.087 0 0 1-.987.631h.002Zm86.07-2.619a1.08 1.08 0 0 1-.985-1.535l2.221-4.811a1.085 1.085 0 0 1 1.971.905l-2.221 4.811a1.086 1.086 0 0 1-.987.631l.001-.001Zm-94.84-3.05c-.36 0-.714-.18-.92-.507a10.275 10.275 0 0 1-1.589-5.488v-.129a1.084 1.084 0 0 1 1.085-1.07h.014c.6.007 1.08.498 1.072 1.097v.1c0 1.536.434 3.036 1.255 4.339a1.08 1.08 0 0 1-.342 1.492 1.07 1.07 0 0 1-.577.167l.002-.001Zm99.282-6.574a1.08 1.08 0 0 1-.986-1.535l2.221-4.811a1.086 1.086 0 0 1 1.971.905l-2.221 4.811a1.088 1.088 0 0 1-.987.631l.002-.001Zm-99.251-3.497a1.081 1.081 0 0 1-.986-1.535l2.22-4.813a1.085 1.085 0 0 1 1.972.906l-2.22 4.811a1.087 1.087 0 0 1-.988.631h.002Zm103.69-6.127a1.08 1.08 0 0 1-.985-1.535l2.221-4.811a1.085 1.085 0 0 1 1.971.905l-2.221 4.811c-.183.396-.576.63-.987.63h.001Zm-99.25-3.497a1.081 1.081 0 0 1-.986-1.535l2.22-4.812c.252-.543.897-.78 1.44-.53.544.25.783.893.532 1.436l-2.221 4.811c-.183.396-.576.63-.987.63h.002Zm103.69-6.127a1.081 1.081 0 0 1-.985-1.535l2.22-4.811a1.087 1.087 0 0 1 1.44-.531c.544.25.782.893.531 1.436l-2.22 4.811c-.183.396-.576.63-.987.63h.001Zm-99.25-3.497a1.081 1.081 0 0 1-.986-1.535l2.22-4.812a1.086 1.086 0 0 1 1.971.906l-2.22 4.811c-.183.396-.576.63-.987.63h.001Zm103.69-6.127a1.081 1.081 0 0 1-.985-1.535l2.22-4.812a1.085 1.085 0 0 1 1.971.906l-2.22 4.811a1.087 1.087 0 0 1-.987.631l.001-.001ZM89.983 92.4a1.08 1.08 0 0 1-.986-1.535l2.22-4.813a1.086 1.086 0 0 1 1.971.905l-2.22 4.812a1.087 1.087 0 0 1-.987.63h.001Zm103.69-6.127a1.081 1.081 0 0 1-.986-1.535l2.221-4.812a1.086 1.086 0 0 1 1.971.906l-2.221 4.811a1.087 1.087 0 0 1-.987.631l.002-.001Zm-99.251-3.498a1.08 1.08 0 0 1-.985-1.535l2.22-4.81a1.086 1.086 0 0 1 1.971.905l-2.22 4.811c-.183.396-.576.63-.987.63Zm103.691-6.127a1.08 1.08 0 0 1-.986-1.535l.603-1.307a8.044 8.044 0 0 0 .747-3.296 1.085 1.085 0 0 1 1.085-1.07h.013a1.084 1.084 0 0 1 1.072 1.094 10.19 10.19 0 0 1-.946 4.176l-.603 1.308c-.183.396-.576.63-.987.63h.002Zm-99.251-3.497a1.08 1.08 0 0 1-.986-1.535l2.221-4.81a1.086 1.086 0 0 1 1.971.905l-2.22 4.81a1.088 1.088 0 0 1-.988.632l.002-.002Zm99.276-6.574c-.36 0-.713-.18-.919-.506a8.11 8.11 0 0 0-3.472-3.037 1.082 1.082 0 0 1-.531-1.438c.251-.543.896-.78 1.441-.529a10.266 10.266 0 0 1 4.4 3.85 1.083 1.083 0 0 1-.917 1.66h-.002Zm-94.837-3.05a1.08 1.08 0 0 1-.985-1.535l2.221-4.81a1.086 1.086 0 0 1 1.971.904l-2.221 4.812a1.087 1.087 0 0 1-.987.63h.001Zm86.075-2.607a1.11 1.11 0 0 1-.454-.099l-4.822-2.215a1.08 1.08 0 0 1-.532-1.436 1.084 1.084 0 0 1 1.439-.53l4.823 2.215c.545.25.783.892.532 1.436a1.087 1.087 0 0 1-.987.63h.001Zm-9.646-4.43c-.152 0-.307-.032-.454-.098l-4.823-2.216a1.081 1.081 0 0 1-.532-1.436c.251-.543.897-.78 1.44-.53l4.822 2.215c.545.25.783.893.532 1.436a1.088 1.088 0 0 1-.987.631l.002-.001Zm-71.989-2.585a1.08 1.08 0 0 1-.985-1.535l2.22-4.812c.251-.543.897-.78 1.44-.53.544.25.782.893.531 1.436l-2.22 4.811a1.087 1.087 0 0 1-.987.631l.001-.001Zm62.342-1.844c-.152 0-.307-.032-.454-.099l-4.823-2.215a1.081 1.081 0 0 1-.531-1.436c.251-.543.896-.78 1.439-.53l4.823 2.215c.544.25.782.893.531 1.436a1.086 1.086 0 0 1-.987.63h.002Zm-9.647-4.429c-.152 0-.306-.033-.454-.1l-4.822-2.214a1.08 1.08 0 0 1-.532-1.436 1.084 1.084 0 0 1 1.439-.53l4.823 2.215a1.081 1.081 0 0 1-.455 2.066l.001-.001Zm-48.255-3.351a1.081 1.081 0 0 1-.985-1.535l2.22-4.812a1.086 1.086 0 0 1 1.971.906l-2.22 4.811a1.088 1.088 0 0 1-.987.631l.001-.001Zm38.608-1.08a1.1 1.1 0 0 1-.453-.099l-4.823-2.215a1.08 1.08 0 0 1-.532-1.436 1.085 1.085 0 0 1 1.439-.53l4.824 2.215c.545.25.783.892.532 1.436-.183.396-.575.63-.987.63Zm-9.646-4.43c-.152 0-.307-.032-.454-.098l-4.824-2.216a1.08 1.08 0 0 1-.532-1.435 1.086 1.086 0 0 1 1.439-.531l4.823 2.215a1.081 1.081 0 0 1-.455 2.067l.003-.001Zm-24.178-3.914a1.083 1.083 0 0 1-.812-1.802 10.294 10.294 0 0 1 4.969-3.084 1.085 1.085 0 0 1 1.335.756 1.082 1.082 0 0 1-.757 1.332 8.124 8.124 0 0 0-3.923 2.435 1.084 1.084 0 0 1-.813.363h.001Zm14.532-.514c-.151 0-.306-.033-.454-.1l-3.773-1.733a8.098 8.098 0 0 0-.951-.367 1.082 1.082 0 1 1 .656-2.064c.407.128.813.285 1.204.465l3.773 1.733c.545.25.783.893.532 1.436a1.087 1.087 0 0 1-.987.63Z" fill="#E6E6E6"/><path d="m120.423 125.724-66.468 30.523c-4.629 2.126-10.11.105-12.24-4.513L2.286 66.269C.154 61.65 2.18 56.184 6.81 54.059l66.468-30.523c4.628-2.127 10.109-.105 12.238 4.512l39.431 85.466c2.131 4.617.105 10.085-4.523 12.21Z" fill="#fff"/><path d="M50.104 158.175a10.35 10.35 0 0 1-2.76-.375 1.083 1.083 0 1 1 .58-2.086 8.16 8.16 0 0 0 4.617-.08 1.088 1.088 0 0 1 1.363.706c.18.57-.136 1.179-.708 1.36a10.247 10.247 0 0 1-3.092.477v-.002Zm7.617-2.575a1.084 1.084 0 0 1-.455-2.066l4.823-2.216a1.085 1.085 0 0 1 1.439.531 1.08 1.08 0 0 1-.532 1.436l-4.823 2.215a1.07 1.07 0 0 1-.453.099l.001.001Zm-14.529-.524c-.3 0-.598-.123-.812-.365a10.306 10.306 0 0 1-1.648-2.524l-1.086-2.354a1.085 1.085 0 0 1 1.971-.906l1.086 2.354c.336.729.774 1.4 1.302 1.994a1.081 1.081 0 0 1-.813 1.801Zm24.176-3.905a1.084 1.084 0 0 1-.455-2.067l4.822-2.215a1.084 1.084 0 0 1 1.44.53 1.08 1.08 0 0 1-.532 1.436l-4.823 2.216a1.07 1.07 0 0 1-.453.099v.001Zm9.647-4.429c-.412 0-.804-.234-.987-.631a1.08 1.08 0 0 1 .531-1.436l4.823-2.216a1.086 1.086 0 0 1 1.44.531 1.08 1.08 0 0 1-.532 1.436l-4.823 2.215c-.147.068-.3.099-.454.099l.002.002Zm-38.604-1.091c-.412 0-.804-.233-.987-.631l-2.22-4.811a1.084 1.084 0 0 1 1.971-.906l2.22 4.812a1.08 1.08 0 0 1-.986 1.535l.002.001Zm48.25-3.339a1.084 1.084 0 0 1-.455-2.067l4.823-2.215a1.085 1.085 0 0 1 1.44.531 1.08 1.08 0 0 1-.533 1.435l-4.822 2.216c-.148.068-.3.099-.454.099l.001.001Zm9.647-4.429a1.084 1.084 0 0 1-.455-2.067l4.823-2.215a1.085 1.085 0 0 1 1.439.53 1.08 1.08 0 0 1-.532 1.436l-4.823 2.216a1.09 1.09 0 0 1-.453.099l.001.001Zm-62.337-1.855c-.411 0-.804-.233-.987-.631l-2.22-4.811a1.085 1.085 0 0 1 1.971-.905l2.22 4.811a1.08 1.08 0 0 1-.986 1.535l.002.001Zm71.984-2.574c-.411 0-.804-.234-.987-.631a1.08 1.08 0 0 1 .532-1.436l4.822-2.216a1.087 1.087 0 0 1 1.44.531 1.081 1.081 0 0 1-.532 1.436l-4.823 2.215c-.147.068-.3.099-.454.099l.002.002Zm9.647-4.43a1.083 1.083 0 0 1-.456-2.067l4.839-2.222a1.086 1.086 0 0 1 1.44.529 1.08 1.08 0 0 1-.53 1.437l-4.841 2.223a1.079 1.079 0 0 1-.454.099l.002.001Zm-86.07-2.618c-.412 0-.805-.234-.988-.631l-2.22-4.812a1.08 1.08 0 0 1 .531-1.436 1.086 1.086 0 0 1 1.44.531l2.22 4.811a1.08 1.08 0 0 1-.985 1.535l.001.002Zm94.84-3.05c-.197 0-.397-.054-.577-.167a1.081 1.081 0 0 1-.342-1.493 8.124 8.124 0 0 0 1.255-4.336v-.1a1.083 1.083 0 0 1 1.069-1.098h.016c.593 0 1.076.474 1.085 1.067v.135c0 1.939-.549 3.837-1.589 5.485a1.083 1.083 0 0 1-.92.507h.003Zm-99.282-6.574c-.411 0-.804-.234-.987-.631l-2.22-4.812a1.08 1.08 0 0 1 .531-1.436 1.086 1.086 0 0 1 1.44.531l2.22 4.811a1.08 1.08 0 0 1-.986 1.535l.002.002Zm99.251-3.498c-.411 0-.804-.233-.987-.63l-2.221-4.812a1.085 1.085 0 0 1 1.971-.905l2.221 4.811a1.08 1.08 0 0 1-.986 1.535l.002.001ZM20.65 107.157c-.411 0-.804-.233-.987-.63l-2.22-4.812a1.08 1.08 0 0 1 .531-1.436 1.086 1.086 0 0 1 1.44.531l2.22 4.811a1.08 1.08 0 0 1-.985 1.535l.001.001Zm99.251-3.497c-.411 0-.804-.233-.987-.631l-2.221-4.81a1.084 1.084 0 0 1 1.971-.905l2.221 4.81a1.08 1.08 0 0 1-.985 1.535l.001.001Zm-103.69-6.127c-.412 0-.805-.233-.988-.63l-2.22-4.812a1.085 1.085 0 0 1 1.971-.905l2.22 4.811a1.08 1.08 0 0 1-.985 1.535l.001.001Zm99.25-3.497c-.411 0-.804-.233-.987-.63l-2.22-4.812a1.08 1.08 0 0 1 .531-1.436 1.086 1.086 0 0 1 1.44.53l2.22 4.812a1.08 1.08 0 0 1-.985 1.535l.001.001ZM11.771 87.91c-.412 0-.805-.233-.988-.63l-2.22-4.812a1.085 1.085 0 0 1 1.971-.905l2.22 4.811a1.08 1.08 0 0 1-.985 1.535l.002.001Zm99.25-3.497c-.411 0-.804-.233-.987-.63l-2.22-4.812a1.085 1.085 0 0 1 1.971-.905l2.22 4.81a1.08 1.08 0 0 1-.985 1.536l.001.001ZM7.331 78.285c-.412 0-.804-.233-.987-.63l-2.22-4.812a1.085 1.085 0 0 1 1.971-.905l2.22 4.81a1.08 1.08 0 0 1-.986 1.536l.002.001Zm99.251-3.497c-.412 0-.804-.233-.987-.63l-2.221-4.812a1.085 1.085 0 0 1 1.971-.905l2.221 4.81a1.081 1.081 0 0 1-.986 1.536l.002.001ZM2.888 68.66c-.411 0-.804-.234-.987-.631l-.603-1.307a10.211 10.211 0 0 1-.945-4.176 1.085 1.085 0 0 1 2.17-.025 8.05 8.05 0 0 0 .746 3.295l.603 1.307a1.08 1.08 0 0 1-.985 1.535l.001.002Zm99.251-3.497c-.411 0-.804-.234-.987-.631l-2.22-4.812a1.084 1.084 0 0 1 1.97-.905l2.221 4.811a1.08 1.08 0 0 1-.985 1.535l.001.002ZM2.863 58.589a1.082 1.082 0 0 1-.917-1.66 10.264 10.264 0 0 1 4.4-3.85 1.088 1.088 0 0 1 1.44.529 1.082 1.082 0 0 1-.53 1.437 8.106 8.106 0 0 0-3.473 3.037 1.086 1.086 0 0 1-.92.507Zm94.836-3.05c-.411 0-.804-.234-.987-.631l-2.22-4.812a1.085 1.085 0 0 1 1.971-.905l2.22 4.811a1.08 1.08 0 0 1-.985 1.535l.001.002ZM11.624 52.93c-.41 0-.804-.233-.987-.63a1.08 1.08 0 0 1 .532-1.437l4.823-2.215a1.085 1.085 0 0 1 1.44.53 1.08 1.08 0 0 1-.533 1.436l-4.822 2.216c-.148.068-.3.099-.454.099l.001.001Zm9.647-4.429c-.411 0-.804-.233-.987-.631a1.08 1.08 0 0 1 .532-1.436l4.823-2.215a1.085 1.085 0 0 1 1.439.53 1.08 1.08 0 0 1-.532 1.436L21.724 48.4a1.08 1.08 0 0 1-.454.1l.001.001Zm71.988-2.588c-.41 0-.804-.233-.987-.63l-2.22-4.812a1.085 1.085 0 0 1 1.971-.905l2.22 4.811a1.08 1.08 0 0 1-.985 1.535l.001.002ZM30.918 44.07c-.411 0-.804-.233-.987-.63a1.08 1.08 0 0 1 .532-1.437l4.822-2.215a1.085 1.085 0 0 1 1.44.53 1.08 1.08 0 0 1-.532 1.436L31.37 43.97c-.147.068-.3.099-.454.099l.002.001Zm9.647-4.43c-.412 0-.804-.233-.987-.63a1.08 1.08 0 0 1 .531-1.436l4.823-2.215a1.085 1.085 0 0 1 1.44.53 1.08 1.08 0 0 1-.532 1.436l-4.823 2.215c-.148.068-.3.1-.454.1h.002Zm48.255-3.35c-.412 0-.804-.234-.987-.631l-2.221-4.812a1.085 1.085 0 0 1 1.971-.905l2.22 4.811a1.08 1.08 0 0 1-.985 1.535l.002.001Zm-38.61-1.078c-.41 0-.804-.234-.987-.632a1.08 1.08 0 0 1 .532-1.435l4.823-2.216a1.085 1.085 0 0 1 1.44.53 1.08 1.08 0 0 1-.533 1.437l-4.822 2.215c-.148.068-.3.099-.454.099l.001.002Zm9.647-4.43a1.084 1.084 0 0 1-.455-2.067l4.823-2.215a1.085 1.085 0 0 1 1.439.53 1.08 1.08 0 0 1-.532 1.436l-4.823 2.216c-.147.067-.3.099-.453.099l.001.001Zm24.179-3.916c-.3 0-.599-.123-.813-.363a8.12 8.12 0 0 0-3.924-2.435 1.084 1.084 0 0 1-.757-1.333c.16-.575.757-.913 1.336-.755a10.3 10.3 0 0 1 4.969 3.084 1.082 1.082 0 0 1-.811 1.802Zm-14.532-.515c-.411 0-.804-.233-.987-.63a1.08 1.08 0 0 1 .532-1.437l3.773-1.733c.391-.18.796-.335 1.203-.465a1.082 1.082 0 1 1 .657 2.064 8.337 8.337 0 0 0-.953.368l-3.773 1.733c-.147.068-.3.099-.454.099l.002.001Z" fill="#E6E6E6"/><path d="M65.294 1.625h73.171c5.092 0 9.227 4.124 9.227 9.205v94.084c0 5.08-4.133 9.205-9.227 9.205h-73.17c-5.093 0-9.228-4.124-9.228-9.205V10.83c0-5.08 4.134-9.205 9.227-9.205Z" fill="#fff"/><path d="M138.492 115.201h-5.335a1.083 1.083 0 1 1 0-2.166h5.335a1.084 1.084 0 1 1 0 2.166Zm-10.645 0h-5.311a1.083 1.083 0 1 1 0-2.166h5.311a1.084 1.084 0 1 1 0 2.166Zm-10.62 0h-5.31a1.083 1.083 0 1 1 0-2.166h5.31a1.083 1.083 0 1 1 0 2.166Zm-10.619 0h-5.311a1.083 1.083 0 1 1 0-2.166h5.311a1.084 1.084 0 0 1 0 2.166Zm-10.62 0H90.68a1.083 1.083 0 1 1 0-2.166h5.31a1.083 1.083 0 1 1 0 2.166Zm-10.62 0H80.06a1.083 1.083 0 1 1 0-2.166h5.309a1.083 1.083 0 1 1 0 2.166Zm-10.619 0h-5.31a1.083 1.083 0 1 1 0-2.166h5.31a1.083 1.083 0 1 1 0 2.166Zm-10.615-.072a1.24 1.24 0 0 1-.136-.008 10.271 10.271 0 0 1-5.359-2.349 1.08 1.08 0 0 1-.128-1.526 1.086 1.086 0 0 1 1.53-.127 8.1 8.1 0 0 0 4.228 1.853 1.083 1.083 0 0 1-.135 2.157Zm79.373-1.422a1.082 1.082 0 0 1-.594-1.989 8.115 8.115 0 0 0 2.996-3.511 1.087 1.087 0 0 1 1.432-.55c.548.243.794.883.552 1.429a10.316 10.316 0 0 1-3.793 4.445 1.093 1.093 0 0 1-.593.176Zm-87.046-5.041c-.467 0-.896-.302-1.038-.77a10.263 10.263 0 0 1-.44-2.982v-2.589a1.084 1.084 0 0 1 2.17 0v2.59c0 .802.116 1.595.347 2.354a1.082 1.082 0 0 1-1.039 1.397Zm91.231-4.123c-.6 0-1.087-.485-1.087-1.082v-5.298c0-.599.487-1.082 1.087-1.082.599 0 1.084.485 1.084 1.082v5.298c0 .598-.486 1.082-1.084 1.082Zm-91.624-6.434c-.6 0-1.085-.485-1.085-1.082v-5.298a1.084 1.084 0 0 1 2.17 0v5.298c0 .598-.486 1.082-1.085 1.082Zm91.624-4.16c-.6 0-1.087-.486-1.087-1.083v-5.298c0-.598.487-1.082 1.087-1.082.599 0 1.084.485 1.084 1.082v5.298c0 .599-.486 1.083-1.084 1.083Zm-91.624-6.434c-.6 0-1.085-.486-1.085-1.083v-5.296a1.084 1.084 0 0 1 2.17 0v5.296c0 .599-.486 1.083-1.085 1.083Zm91.624-4.16c-.6 0-1.087-.486-1.087-1.083v-5.297c0-.598.487-1.082 1.087-1.082.599 0 1.084.485 1.084 1.082v5.297c0 .598-.486 1.082-1.084 1.082ZM56.068 76.92c-.6 0-1.085-.485-1.085-1.082V70.54a1.084 1.084 0 0 1 2.17 0v5.297c0 .598-.486 1.082-1.085 1.082Zm91.624-4.16c-.6 0-1.087-.486-1.087-1.083v-5.296c0-.599.487-1.082 1.087-1.082.599 0 1.084.485 1.084 1.082v5.296c0 .599-.486 1.082-1.084 1.082Zm-91.624-6.434c-.6 0-1.085-.486-1.085-1.083v-5.296a1.084 1.084 0 0 1 2.17 0v5.296c0 .599-.486 1.083-1.085 1.083Zm91.624-4.161c-.6 0-1.087-.485-1.087-1.082v-5.297c0-.598.487-1.082 1.087-1.082.599 0 1.084.485 1.084 1.082v5.297c0 .598-.486 1.082-1.084 1.082Zm-91.624-6.434c-.6 0-1.085-.485-1.085-1.082v-5.297a1.084 1.084 0 0 1 2.17 0v5.297c0 .598-.486 1.082-1.085 1.082Zm91.624-4.16c-.6 0-1.087-.486-1.087-1.083v-5.296a1.085 1.085 0 0 1 2.171 0v5.296c0 .599-.486 1.082-1.084 1.082Zm-91.624-6.435c-.6 0-1.085-.485-1.085-1.082v-5.296a1.084 1.084 0 0 1 2.17 0v5.296c0 .599-.486 1.082-1.085 1.082Zm91.624-4.16c-.6 0-1.087-.485-1.087-1.082v-5.297c0-.598.487-1.082 1.087-1.082.599 0 1.084.485 1.084 1.082v5.297c0 .598-.486 1.082-1.084 1.082Zm-91.624-6.434c-.6 0-1.085-.485-1.085-1.082v-5.297a1.084 1.084 0 0 1 2.17 0v5.297c0 .598-.486 1.082-1.085 1.082Zm91.624-4.16c-.6 0-1.087-.486-1.087-1.083v-5.296a1.085 1.085 0 0 1 2.171-.001V29.3c0 .599-.486 1.082-1.084 1.082Zm-91.624-6.435c-.6 0-1.085-.485-1.085-1.082V17.57a1.084 1.084 0 0 1 2.17 0v5.296c0 .599-.486 1.082-1.085 1.082Zm91.624-4.16c-.6 0-1.087-.485-1.087-1.082v-5.297c0-.598.487-1.082 1.087-1.082.599 0 1.084.485 1.084 1.082v5.296c0 .599-.486 1.083-1.084 1.083Zm-91.624-6.434c-.6 0-1.085-.485-1.085-1.082v-1.44c0-1.458.3-2.865.89-4.187a1.086 1.086 0 0 1 1.982.883 8.05 8.05 0 0 0-.702 3.303v1.44c0 .599-.486 1.083-1.085 1.083Zm91.227-4.121c-.466 0-.897-.302-1.038-.768a8.114 8.114 0 0 0-2.546-3.847 1.082 1.082 0 0 1-.13-1.526 1.089 1.089 0 0 1 1.53-.13 10.269 10.269 0 0 1 3.223 4.872 1.083 1.083 0 0 1-1.039 1.397v.002Zm-87.03-5.036a1.084 1.084 0 0 1-.594-1.99 10.293 10.293 0 0 1 5.61-1.663h.001a1.083 1.083 0 1 1 .002 2.166 8.13 8.13 0 0 0-4.427 1.311 1.082 1.082 0 0 1-.591.176Zm79.351-1.417a1.04 1.04 0 0 1-.135-.008 8.362 8.362 0 0 0-1.015-.062h-4.158a1.083 1.083 0 1 1 0-2.165h4.158c.428 0 .859.027 1.283.08a1.082 1.082 0 0 1-.133 2.157v-.002Zm-10.618-.07h-5.309c-.6 0-1.085-.486-1.085-1.083 0-.596.487-1.082 1.085-1.082h5.309c.6 0 1.086.486 1.086 1.082 0 .597-.486 1.083-1.086 1.083Zm-10.62 0h-5.309a1.083 1.083 0 1 1 0-2.165h5.309c.6 0 1.087.486 1.087 1.082 0 .597-.487 1.083-1.087 1.083Zm-10.619 0h-5.309c-.6 0-1.085-.486-1.085-1.083 0-.596.487-1.082 1.085-1.082h5.309c.6 0 1.085.486 1.085 1.082 0 .597-.487 1.083-1.085 1.083Zm-10.62 0H91.83a1.083 1.083 0 1 1 0-2.165h5.31a1.083 1.083 0 1 1-.001 2.165Zm-10.619 0h-5.31a1.083 1.083 0 1 1 0-2.165h5.31c.6 0 1.085.486 1.085 1.082 0 .597-.487 1.083-1.085 1.083Zm-10.62 0h-5.309a1.083 1.083 0 1 1 0-2.165h5.31a1.083 1.083 0 1 1-.001 2.165Z" fill="#E6E6E6"/><path d="M121.209 61.574c-.277 0-.555-.106-.767-.317L81.716 22.62a1.082 1.082 0 0 1 0-1.532 1.088 1.088 0 0 1 1.536 0l38.727 38.635a1.082 1.082 0 0 1-.767 1.85h-.003Z" fill="#F2F2F2"/><path d="M82.484 61.574a1.084 1.084 0 0 1-.768-1.85l38.726-38.634a1.088 1.088 0 0 1 1.536 0 1.082 1.082 0 0 1 0 1.532L83.251 61.258a1.09 1.09 0 0 1-.767.317v-.001Z" fill="#F2F2F2"/><path d="m157.264 115.979.746.887a31.954 31.954 0 0 1-2.405 2.224 35.691 35.691 0 0 1-2.262 1.74c-.176.121-.35.241-.526.36a10.83 10.83 0 0 1-.177.117l-.718-.854-.41-.489-.409-.486.526-.359a35.405 35.405 0 0 0 2.261-1.741 31.72 31.72 0 0 0 2.553-2.376l.412.489.409.488Zm13.971 16.609-.849.711-4.492 3.763-2.767-3.286-.407-.485-.408-.487-3.966-4.715.173-.122c.173-.121.346-.246.517-.369a45.136 45.136 0 0 0 2.248-1.757 43.052 43.052 0 0 0 2.426-2.2l3.946 4.693.406.485.41.482 2.052 2.441.711.847v-.001Z" fill="#E6E6E6"/><path d="m185.465 167.468-24.689-29.354a2.444 2.444 0 0 1 .302-3.448l8.629-7.223a2.457 2.457 0 0 1 3.456.301l24.689 29.355a5.718 5.718 0 0 1-.708 8.07l-3.589 3.005a5.75 5.75 0 0 1-8.09-.706Zm-20.809-42.702a43.53 43.53 0 0 1-2.426 2.2 45.372 45.372 0 0 1-2.247 1.757c-.172.123-.345.247-.518.369l-.173.122-2.08-2.473-.41-.487-.41-.488-3.753-4.462.177-.117c.176-.119.35-.239.526-.36a35.324 35.324 0 0 0 2.262-1.74 31.954 31.954 0 0 0 2.405-2.223l3.726 4.428.409.486.411.488 2.1 2.497.001.003Z" fill="#B2B2B2"/><path d="M164.745 65.086c-14.914-17.731-41.408-20.044-59.183-5.166-17.772 14.878-20.091 41.31-5.175 59.043 14.018 16.666 38.27 19.711 55.895 7.655.174-.119.35-.239.523-.362a44.679 44.679 0 0 0 2.764-2.127 43.441 43.441 0 0 0 3.026-2.796c14.96-15.218 16.169-39.579 2.15-56.245v-.002Zm-53.506 1.583c14.015-11.73 34.982-9.9 46.74 4.08 10.862 12.913 10.123 31.749-1.097 43.79-.144.155-.29.309-.44.461a31.49 31.49 0 0 1-2.554 2.377 34.144 34.144 0 0 1-2.262 1.739l-.524.361c-.177.118-.355.234-.532.35-6.173 3.995-13.453 5.818-20.897 5.168-8.829-.772-16.828-4.926-22.524-11.699-11.758-13.979-9.926-34.898 4.088-46.63l.002.003Z" fill="#E6E6E6"/><path d="M158.463 70.342c-12.003-14.27-33.326-16.132-47.631-4.156-14.304 11.972-16.17 33.25-4.169 47.519 11.106 13.206 30.194 15.785 44.316 6.612.18-.116.355-.235.532-.354.174-.119.35-.237.523-.362a34.258 34.258 0 0 0 4.372-3.658c.15-.15.301-.303.448-.453l.44-.461c11.507-12.282 12.274-31.483 1.168-44.689l.001.002Zm-1.581 44.197c-.143.154-.289.309-.439.461a31.49 31.49 0 0 1-2.554 2.377 34.408 34.408 0 0 1-2.262 1.739l-.524.361-.532.35c-6.173 3.995-13.453 5.818-20.897 5.168-8.829-.772-16.828-4.926-22.524-11.699-11.758-13.979-9.926-34.898 4.088-46.63 14.016-11.73 34.982-9.9 46.741 4.08 10.861 12.914 10.123 31.749-1.098 43.79l.001.003Z" fill="#E6E6E6"/><path d="M156.883 114.541c-.144.154-.29.308-.44.461a31.776 31.776 0 0 1-2.554 2.377 34.374 34.374 0 0 1-2.261 1.738l-.525.361c-.177.119-.355.235-.532.351-6.173 3.995-13.453 5.817-20.897 5.168-8.829-.773-16.828-4.926-22.524-11.7-11.758-13.978-9.926-34.897 4.088-46.63 14.016-11.73 34.983-9.899 46.741 4.08 10.862 12.914 10.123 31.749-1.098 43.791l.002.003Zm34.462 42.326c-.311 0-.62-.131-.839-.382l-20.109-23.171a1.105 1.105 0 0 1 .112-1.562 1.111 1.111 0 0 1 1.565.111l20.109 23.172a1.106 1.106 0 0 1-.838 1.832Z" fill="#fff"/><path d="M102.143 69.039a.809.809 0 0 1-.638-1.308 39.217 39.217 0 0 1 9.25-8.516 39.678 39.678 0 0 1 11.32-5.143c8.375-2.313 17.077-1.828 25.167 1.402a.81.81 0 1 1-.602 1.502c-15.523-6.198-33.557-1.365-43.856 11.752a.81.81 0 0 1-.639.31h-.002Zm-5.459 9.473a.808.808 0 0 1-.752-1.11 39.704 39.704 0 0 1 3.052-6.056.812.812 0 0 1 1.381.85 38.121 38.121 0 0 0-2.926 5.808.81.81 0 0 1-.753.509l-.002-.001Z" fill="#fff"/></svg>
