<svg xmlns="http://www.w3.org/2000/svg" width="56" height="56" viewBox="0 0 56 56" fill="none">
<g clip-path="url(#clip0_985_2515)">
<path d="M28 56C43.464 56 56 43.464 56 28C56 12.536 43.464 0 28 0C12.536 0 0 12.536 0 28C0 43.464 12.536 56 28 56Z" fill="#118ACB"/>
<path d="M25.2379 15.9912V19.1808C23.739 19.7559 22.6758 20.6797 22.0484 21.9607C21.4122 23.2418 21.1072 25.525 21.1072 28.8278V29.8213H25.2467V38.3093H13.7695V31.1546C13.7695 27.4509 14.2053 24.7581 15.0854 23.0762C15.9569 21.3943 17.3251 19.8953 19.1987 18.5794C21.0636 17.2635 23.0767 16.4008 25.2554 15.9999" fill="white"/>
<path d="M39.3385 15.9912V19.1808C37.857 19.7559 36.8025 20.6797 36.1576 21.9607C35.5215 23.2418 35.199 25.525 35.199 28.8278V29.8213H39.3385V38.3093H27.8613V31.1546C27.8613 27.4509 28.3058 24.7581 29.1947 23.0762C30.0836 21.3943 31.443 19.8953 33.2818 18.5794C35.1206 17.2635 37.1424 16.4008 39.3472 15.9999" fill="white"/>
</g>
<defs>
<clipPath id="clip0_985_2515">
<rect width="56" height="56" fill="white"/>
</clipPath>
</defs>
</svg>