<svg viewBox="0 0 47 34" xmlns="http://www.w3.org/2000/svg">
<g clip-path="url(#clip0_315_5938)">
<path d="M23.5115 6.12261C15.9991 -3.20119 -1.09951 0.196495 0.0643801 15.2292C0.656906 22.9529 6.64564 29.5111 12.4228 34.094L14.5389 29.3136C15.3376 27.7445 16.5967 26.419 18.1698 25.4909C19.743 24.5628 21.5658 24.0702 23.4268 24.0702C25.2879 24.0702 27.1107 24.5628 28.6839 25.4909C30.257 26.419 31.5161 27.7445 32.3148 29.3136L34.4309 34.094C40.2081 29.5111 46.1968 22.9529 46.7893 15.2292C48.1225 0.176741 31.0451 -3.20119 23.5115 6.12261ZM23.5115 22.222C22.4149 22.222 21.343 21.9185 20.4312 21.3498C19.5195 20.7811 18.8088 19.9728 18.3892 19.0271C17.9696 18.0814 17.8597 17.0408 18.0737 16.0368C18.2876 15.0329 18.8157 14.1107 19.591 13.3869C20.3664 12.6631 21.3544 12.1701 22.4299 11.9704C23.5054 11.7707 24.6201 11.8732 25.6332 12.2649C26.6463 12.6567 27.5122 13.3201 28.1214 14.1712C28.7307 15.0223 29.0559 16.0229 29.0559 17.0465C29.0559 18.4191 28.4717 19.7355 27.4319 20.7061C26.3922 21.6767 24.982 22.222 23.5115 22.222Z"/>
</g>
<defs>
<clipPath id="clip0_315_5938">
<rect width="47" height="33.1667" fill="white"/>
</clipPath>
</defs>
</svg>
