<svg viewBox="0 0 50 45"  xmlns="http://www.w3.org/2000/svg">
<g clip-path="url(#clip0_315_5950)">
<path d="M18.8309 2.90137C8.43525 2.90137 0 11.3535 0 21.788C0 32.2226 8.43525 40.6567 18.8309 40.6567C29.2266 40.6567 37.6619 32.2045 37.6619 21.788C37.6619 11.3715 29.2266 2.90137 18.8309 2.90137ZM18.8309 10.1641C21.4389 10.1641 23.5432 12.2906 23.5432 14.8857C23.5432 17.4809 21.4209 19.6074 18.8309 19.6074C16.241 19.6074 14.1187 17.4809 14.1187 14.8857C14.1187 12.2906 16.241 10.1641 18.8309 10.1641ZM18.8309 33.394C15.2878 33.394 12.0683 31.9522 9.7482 29.6094L11.259 26.0952C12.6079 23.2658 15.4856 21.3014 18.813 21.3014C22.1403 21.3014 25.036 23.2658 26.3669 26.0952L27.8777 29.6094C25.5576 31.9342 22.3561 33.394 18.813 33.394H18.8309Z" fill="black"/>
<path d="M42.5558 45.0005C45.5358 45.0005 47.9515 42.5799 47.9515 39.594C47.9515 36.6081 45.5358 34.1875 42.5558 34.1875C39.5759 34.1875 37.1602 36.6081 37.1602 39.594C37.1602 42.5799 39.5759 45.0005 42.5558 45.0005Z" fill="black"/>
<path d="M41.036 38.4984L41.0574 38.4694C41.4766 37.9011 41.3566 37.0999 40.7895 36.6799L32.7912 30.7561C32.2241 30.336 31.4245 30.4562 31.0053 31.0245L30.9839 31.0535C30.5647 31.6218 30.6846 32.423 31.2518 32.843L39.25 38.7668C39.8172 39.1868 40.6168 39.0667 41.036 38.4984Z" fill="black"/>
<path d="M44.6066 10.813C47.5866 10.813 50.0023 8.39241 50.0023 5.40649C50.0023 2.42057 47.5866 0 44.6066 0C41.6267 0 39.2109 2.42057 39.2109 5.40649C39.2109 8.39241 41.6267 10.813 44.6066 10.813Z" fill="black"/>
<path d="M43.0611 6.44893L43.0413 6.41881C42.6539 5.82831 41.8621 5.66429 41.2728 6.05248L32.9617 11.5269C32.3724 11.9151 32.2087 12.7085 32.5961 13.299L32.6159 13.3291C33.0033 13.9196 33.7951 14.0836 34.3844 13.6954L42.6955 8.221C43.2848 7.83281 43.4485 7.03943 43.0611 6.44893Z" fill="black"/>
</g>
<defs>
<clipPath id="clip0_315_5950">
<rect width="50" height="45" fill="white"/>
</clipPath>
</defs>
</svg>
