<svg width="124" height="26" viewBox="0 0 124 26" fill="none" xmlns="http://www.w3.org/2000/svg">
<path d="M40.3275 16.4884C41.0979 16.9865 42.4847 17.5842 43.9229 17.5842C45.1556 17.5842 46.0287 17.0363 46.0287 15.9903C46.0287 13.6492 39.6084 14.3964 39.6084 10.3617C39.6084 8.07045 41.6629 6.875 44.1283 6.875C45.8746 6.875 46.7992 7.42292 47.9805 8.17007L47.0046 9.61457C45.8233 9.11647 45.2069 8.76779 44.0256 8.76779C42.8442 8.76779 41.9197 9.2659 41.9197 10.3119C41.9197 12.7028 48.3401 11.856 48.3401 15.9405C48.3401 17.9827 46.5424 19.477 43.8715 19.477C41.817 19.477 40.2761 18.6302 39.3516 17.9329L40.3275 16.4884Z" fill="white"/>
<path d="M51.3711 25.8029V7.17386H53.5797V8.56854C53.5797 8.91722 53.5283 9.21608 53.5283 9.21608H53.5797C53.5797 9.21608 54.6583 6.9248 57.7401 6.9248C61.0787 6.9248 63.1845 9.51494 63.1845 13.2507C63.1845 17.0861 60.8219 19.5766 57.5346 19.5766C54.7097 19.5766 53.6824 17.4348 53.6824 17.4348H53.6311C53.6311 17.4348 53.6824 17.8831 53.6824 18.4808V25.9026H51.3711V25.8029ZM57.1751 17.5344C59.1269 17.5344 60.7705 15.9903 60.7705 13.2507C60.7705 10.6108 59.3323 8.91722 57.2778 8.91722C55.4288 8.91722 53.6824 10.1625 53.6824 13.2507C53.6824 15.3926 54.9151 17.5344 57.1751 17.5344Z" fill="white"/>
<path d="M72.7895 9.31618C70.3754 9.31618 68.2182 11.9063 68.2182 14.2474V19.2783H65.8555V7.17433H68.1668V9.31618C68.1668 9.81428 68.1154 10.2128 68.1154 10.2128H68.1668C68.7318 8.61884 70.9404 7.0249 72.8408 7.0249V9.31618H72.7895Z" fill="white"/>
<path d="M75.2539 19.328V7.17432H77.6166V19.2782H75.2539V19.328Z" fill="white"/>
<path d="M89.893 19.3276V12.0553C89.893 10.3617 89.5335 9.01685 87.5817 9.01685C85.1676 9.01685 83.4213 10.9595 83.4213 13.45V19.2778H81.0586V7.17386H83.3699V9.01685C83.3699 9.36552 83.3186 9.71419 83.3186 9.71419H83.3699C83.8836 8.66817 85.3731 6.875 88.0953 6.875C91.023 6.875 92.3584 8.41912 92.3584 11.5074V19.2778H89.893V19.3276Z" fill="white"/>
<path d="M103.965 19.3278L100.216 13.5996H98.3666V19.3278H96.0039V0.648926H98.3666V11.5574H100.164L103.657 7.17409H106.174L102.167 12.454V12.5038L106.636 19.278L103.965 19.3278Z" fill="white"/>
<path d="M113.262 19.3278C111.31 19.3278 109.102 18.9791 109.102 15.9905V0.648926H111.464V15.6419C111.464 17.1362 112.748 17.186 113.262 17.186V19.3278Z" fill="white"/>
<path d="M123.075 9.21608C120.661 9.21608 118.503 11.8062 118.503 14.1473V19.1782H116.141V7.07424H118.452V9.21608C118.452 9.71418 118.401 10.1127 118.401 10.1127H118.452C119.017 8.51874 121.226 6.9248 123.126 6.9248V9.21608H123.075Z" fill="white"/>
<path d="M76.4348 4.63363C77.2575 4.63363 77.9244 3.98691 77.9244 3.18913C77.9244 2.39135 77.2575 1.74463 76.4348 1.74463C75.6122 1.74463 74.9453 2.39135 74.9453 3.18913C74.9453 3.98691 75.6122 4.63363 76.4348 4.63363Z" fill="white"/>
<path d="M2.36798 3.4515C2.47071 1.95719 3.75478 0.662119 5.44975 0.76174C5.91202 0.811551 6.47701 0.811551 7.35017 1.45909C11.151 4.69676 13.411 10.3751 12.7433 15.3064C12.6919 15.5554 12.4351 15.5554 12.3324 15.3064C11.2538 11.7698 7.70972 7.73519 4.57658 6.48993C3.08706 5.94202 2.26525 4.896 2.36798 3.4515Z" fill="#FAA21B"/>
<path d="M12.1797 20.8349C11.2038 17.7467 6.37573 12.6162 2.83169 12.6162C0.982628 12.6162 -0.095992 14.1105 0.00673366 15.4554C0.109459 17.149 1.59898 17.9957 2.93441 17.9957C5.96482 17.9957 9.61158 19.241 11.8716 21.0342C12.0256 21.1338 12.2311 21.0342 12.1797 20.8349Z" fill="#70BF54"/>
<path d="M16.5444 25.5038C16.493 25.7529 16.2362 25.7529 16.1335 25.5038C12.1272 13.3999 19.318 0.100535 24.6597 0.000914444C27.4846 -0.0488959 29.4364 1.94352 29.4364 4.18499C29.4364 5.72911 28.9228 6.97437 27.0737 7.97058C22.3997 10.5109 17.1607 17.0859 16.5444 25.5038Z" fill="#00BAE9"/>
<path d="M21.0662 20.9853C20.9121 21.085 20.7067 20.9853 20.758 20.7861C21.7339 17.6979 26.562 12.5674 30.1061 12.5674C31.9551 12.5674 33.0338 14.0617 32.931 15.4066C32.8283 17.1001 31.3388 17.9469 30.0034 17.9469C27.0243 17.9469 23.3775 19.2918 21.0662 20.9853Z" fill="#128ACB"/>
</svg>
