<svg viewBox="0 0 163 50" fill="none" xmlns="http://www.w3.org/2000/svg">
    <path
        d="M1.89883 31.3609C3.39791 32.3471 6.09625 33.5306 8.89454 33.5306C11.2931 33.5306 12.992 32.4457 12.992 30.3747C12.992 25.7396 0.499693 27.2189 0.499693 19.2307C0.499693 14.6943 4.49724 12.3274 9.2943 12.3274C12.6922 12.3274 14.4911 13.4122 16.7897 14.8915L14.8909 17.7515C12.5923 16.7653 11.393 16.0749 9.09443 16.0749C6.79584 16.0749 4.99693 17.0611 4.99693 19.1321C4.99693 23.8659 17.4893 22.1893 17.4893 30.2761C17.4893 34.3195 13.9914 37.2781 8.79461 37.2781C4.79706 37.2781 1.7989 35.6016 0 34.2209L1.89883 31.3609Z"
        fill="#2E3841" />
    <path
        d="M23.3848 49.8028V12.9191H27.6821V15.6805C27.6821 16.3708 27.5822 16.9625 27.5822 16.9625H27.6821C27.6821 16.9625 29.7809 12.426 35.7772 12.426C42.2732 12.426 46.3707 17.5542 46.3707 24.9507C46.3707 32.5444 41.7735 37.4753 35.3774 37.4753C29.8808 37.4753 27.882 33.2347 27.882 33.2347H27.7821C27.7821 33.2347 27.882 34.1223 27.882 35.3057V50H23.3848V49.8028ZM34.6778 33.4319C38.4755 33.4319 41.6735 30.3747 41.6735 24.9507C41.6735 19.7239 38.8753 16.3708 34.8777 16.3708C31.2799 16.3708 27.882 18.8363 27.882 24.9507C27.882 29.1913 30.2805 33.4319 34.6778 33.4319Z"
        fill="#2E3841" />
    <path
        d="M65.0601 17.1598C60.363 17.1598 56.1655 22.288 56.1655 26.9231V36.8836H51.5684V12.9192H56.0656V17.1598C56.0656 18.146 55.9657 18.9349 55.9657 18.9349H56.0656C57.1649 15.7791 61.4623 12.6233 65.16 12.6233V17.1598H65.0601Z"
        fill="#2E3841" />
    <path d="M69.8574 36.9823V12.9192H74.4546V36.8837H69.8574V36.9823Z" fill="#2E3841" />
    <path
        d="M98.3398 36.9822V22.5838C98.3398 19.2307 97.6403 16.568 93.8426 16.568C89.1455 16.568 85.7476 20.4142 85.7476 25.3451V36.8836H81.1504V12.9191H85.6476V16.568C85.6476 17.2584 85.5477 17.9487 85.5477 17.9487H85.6476C86.647 15.8777 89.5452 12.3274 94.842 12.3274C100.538 12.3274 103.137 15.3846 103.137 21.499V36.8836H98.3398V36.9822Z"
        fill="#2E3841" />
    <path
        d="M125.723 36.9823L118.427 25.641H114.83V36.9823H110.232V0H114.83V21.5976H118.327L125.123 12.9191H130.02L122.225 23.3728V23.4714L130.92 36.8836L125.723 36.9823Z"
        fill="#2E3841" />
    <path
        d="M143.812 36.9823C140.014 36.9823 135.717 36.2919 135.717 30.3748V0H140.314V29.6844C140.314 32.643 142.812 32.7416 143.812 32.7416V36.9823Z"
        fill="#2E3841" />
    <path
        d="M162.9 16.9625C158.203 16.9625 154.005 22.0907 154.005 26.7258V36.6864H149.408V12.7219H153.905V16.9625C153.905 17.9487 153.805 18.7377 153.805 18.7377H153.905C155.005 15.5818 159.302 12.426 163 12.426V16.9625H162.9Z"
        fill="#2E3841" />
    <path
        d="M72.156 7.8896C73.7567 7.8896 75.0543 6.60915 75.0543 5.02964C75.0543 3.45013 73.7567 2.16968 72.156 2.16968C70.5554 2.16968 69.2578 3.45013 69.2578 5.02964C69.2578 6.60915 70.5554 7.8896 72.156 7.8896Z"
        fill="#2E3841" />
</svg>
