<svg viewBox="0 0 64 52" fill="none" xmlns="http://www.w3.org/2000/svg">
    <path
        d="M4.60461 8.975C4.80422 5.95038 7.2993 3.32905 10.5928 3.53069C11.491 3.63151 12.5889 3.63151 14.2855 4.94218C21.6709 11.4955 26.0623 22.989 24.7648 32.9703C24.665 33.4744 24.166 33.4744 23.9664 32.9703C21.8706 25.812 14.9841 17.6456 8.89615 15.125C6.00186 14.016 4.405 11.8988 4.60461 8.975Z"
        fill="#FAA21B" />
    <path
        d="M23.6664 44.1615C21.7702 37.9106 12.3887 27.5261 5.50226 27.5261C1.90934 27.5261 -0.186522 30.5507 0.0130842 33.2729C0.21269 36.7008 3.10698 38.4147 5.70186 38.4147C11.5902 38.4147 18.6763 40.9352 23.0676 44.5648C23.367 44.7664 23.7662 44.5648 23.6664 44.1615Z"
        fill="#70BF54" />
    <path
        d="M32.1495 51.6219C32.0497 52.126 31.5506 52.126 31.351 51.6219C23.5664 27.1226 37.5388 0.203492 47.9184 0.00185091C53.4075 -0.0989695 57.2001 3.93385 57.2001 8.47077C57.2001 11.5962 56.202 14.1167 52.6091 16.1331C43.527 21.275 33.3471 34.5833 32.1495 51.6219Z"
        fill="#00BAE9" />
    <path
        d="M40.9328 44.4637C40.6334 44.6653 40.2342 44.4637 40.334 44.0604C42.2303 37.8096 51.6117 27.425 58.4982 27.425C62.0911 27.425 64.1869 30.4497 63.9873 33.1718C63.7877 36.5997 60.8934 38.3137 58.2986 38.3137C52.51 38.3137 45.4239 41.0358 40.9328 44.4637Z"
        fill="#128ACB" />
</svg>
