<svg viewBox="0 0 191 41" fill="none" xmlns="http://www.w3.org/2000/svg">
<path d="M62.2726 25.528C63.4624 26.2972 65.6039 27.2202 67.8248 27.2202C69.7284 27.2202 71.0768 26.3741 71.0768 24.7588C71.0768 21.1436 61.1622 22.2974 61.1622 16.067C61.1622 12.5287 64.3349 10.6826 68.1421 10.6826C70.8388 10.6826 72.2665 11.5287 74.0908 12.6825L72.5838 14.9132C70.7595 14.144 69.8077 13.6055 67.9834 13.6055C66.1591 13.6055 64.7314 14.3747 64.7314 15.99C64.7314 19.6821 74.646 18.3745 74.646 24.6819C74.646 27.8356 71.8699 30.1431 67.7455 30.1431C64.5728 30.1431 62.1933 28.8355 60.7656 27.7586L62.2726 25.528Z" fill="black"/>
<path d="M79.3281 39.9111V11.1434H82.7387V13.2971C82.7387 13.8355 82.6594 14.2971 82.6594 14.2971H82.7387C82.7387 14.2971 84.4044 10.7588 89.1634 10.7588C94.3189 10.7588 97.5709 14.7586 97.5709 20.5275C97.5709 26.4503 93.9223 30.2962 88.8461 30.2962C84.4837 30.2962 82.8974 26.9887 82.8974 26.9887H82.8181C82.8181 26.9887 82.8974 27.681 82.8974 28.604V40.0649H79.3281V39.9111ZM88.2909 27.1425C91.3049 27.1425 93.843 24.758 93.843 20.5275C93.843 16.4508 91.6222 13.8356 88.4495 13.8356C85.5941 13.8356 82.8974 15.7585 82.8974 20.5275C82.8974 23.835 84.801 27.1425 88.2909 27.1425Z" fill="black"/>
<path d="M112.399 14.4514C108.671 14.4514 105.34 18.4512 105.34 22.0663V29.8352H101.691V11.1438H105.261V14.4514C105.261 15.2206 105.181 15.8359 105.181 15.8359H105.261C106.133 13.3745 109.544 10.9131 112.478 10.9131V14.4514H112.399Z" fill="black"/>
<path d="M116.211 29.9118V11.1436H119.859V29.8349H116.211V29.9118Z" fill="black"/>
<path d="M138.814 29.9124V18.6822C138.814 16.0669 138.259 13.9901 135.245 13.9901C131.517 13.9901 128.82 16.99 128.82 20.8359V29.8355H125.172V11.1441H128.741V13.9901C128.741 14.5286 128.662 15.067 128.662 15.067H128.741C129.534 13.4517 131.834 10.6826 136.038 10.6826C140.559 10.6826 142.621 13.0671 142.621 17.8361V29.8355H138.814V29.9124Z" fill="black"/>
<path d="M160.548 29.912L154.758 21.0663H151.902V29.912H148.254V1.06738H151.902V17.9126H154.679L160.072 11.1438H163.959L157.772 19.2972V19.3741L164.672 29.8351L160.548 29.912Z" fill="black"/>
<path d="M174.901 29.912C171.887 29.912 168.477 29.3736 168.477 24.7584V1.06738H172.125V24.22C172.125 26.5276 174.108 26.6045 174.901 26.6045V29.912Z" fill="black"/>
<path d="M190.051 14.2971C186.324 14.2971 182.992 18.2969 182.992 21.912V29.6809H179.344V10.9895H182.913V14.2971C182.913 15.0663 182.834 15.6816 182.834 15.6816H182.913C183.785 13.2202 187.196 10.7588 190.131 10.7588V14.2971H190.051Z" fill="black"/>
<path d="M118.031 7.22009C119.301 7.22009 120.331 6.2214 120.331 4.98944C120.331 3.75749 119.301 2.75879 118.031 2.75879C116.76 2.75879 115.73 3.75749 115.73 4.98944C115.73 6.2214 116.76 7.22009 118.031 7.22009Z" fill="black"/>
<path d="M16.4887 31.4277C15.1676 26.8687 8.63136 19.2949 3.8335 19.2949C1.33027 19.2949 -0.129953 21.5009 0.00911593 23.4863C0.148184 25.9864 2.16468 27.2364 3.97257 27.2364C8.07509 27.2364 13.012 29.0747 16.0715 31.7219C16.2801 31.8689 16.5583 31.7219 16.4887 31.4277Z" fill="#70BF54"/>
<path d="M3.01161 6.3627C3.15016 4.21834 4.88203 2.3599 7.1681 2.50286C7.79157 2.57433 8.55359 2.57434 9.73126 3.50356C14.8576 8.14967 17.9057 16.2982 17.0051 23.3746C16.9358 23.732 16.5895 23.732 16.4509 23.3746C14.9962 18.2996 10.2162 12.5099 5.99043 10.7229C3.98146 9.93663 2.87306 8.43558 3.01161 6.3627Z" fill="#FAA21B"/>
<path d="M21.9532 36.6183C21.8829 36.9758 21.5314 36.9758 21.3908 36.6183C15.9081 19.2395 25.7489 0.144348 33.0593 0.00131295C36.9253 -0.0702045 39.5964 2.7905 39.5964 6.00878C39.5964 8.22582 38.8935 10.0138 36.363 11.4441C29.9664 15.0915 22.7967 24.5318 21.9532 36.6183Z" fill="#00BAE9"/>
<path d="M28.4646 31.7219C28.263 31.8689 27.9941 31.7219 28.0613 31.4277C29.3384 26.8687 35.6568 19.2949 40.2947 19.2949C42.7145 19.2949 44.126 21.5009 43.9916 23.4863C43.8572 25.9864 41.9079 27.2364 40.1603 27.2364C36.2617 27.2364 31.4893 29.2218 28.4646 31.7219Z" fill="#118ACB"/>
</svg>
