<svg xmlns="http://www.w3.org/2000/svg" viewBox="0 0 30 20">
  <path
    d="M28.5084 3.72581C28.1806 2.54576 27.2143 1.61657 25.9874 1.30118C23.7633 0.728027 14.8461 0.728027 14.8461 0.728027C14.8461 0.728027 5.92874 0.728027 3.70469 1.30118C2.47793 1.61657 1.51155 2.54576 1.18367 3.72581C0.587891 5.86456 0.587891 10.3271 0.587891 10.3271C0.587891 10.3271 0.587891 14.7895 1.18367 16.928C1.51155 18.1081 2.47793 19.0375 3.70469 19.3529C5.92874 19.9258 14.8461 19.9258 14.8461 19.9258C14.8461 19.9258 23.7633 19.9258 25.9874 19.3529C27.2143 19.0375 28.1806 18.1081 28.5084 16.928C29.1042 14.7895 29.1042 10.3271 29.1042 10.3271C29.1042 10.3271 29.1042 5.86456 28.5084 3.72581ZM11.9943 14.4409V6.21316L19.4029 10.3271L11.9943 14.4409Z" />
</svg>
